<svg width="698" height="698" xmlns="http://www.w3.org/2000/svg"><g fill="none" fill-rule="evenodd"><g transform="translate(92 92)" fill="#FFF" fill-rule="nonzero"><circle cx="257.5" cy="257.5" r="224.5"/><path d="M17 257.51C17.005 390.33 124.679 498 257.5 498 390.324 498 498 390.324 498 257.5S390.324 17 257.52 17C124.748 17.149 17.153 124.74 17 257.51z" stroke="#4A4A4A" stroke-width="34"/><path d="M66 235c0-90.472 63.265-158 165.139-158C318.372 77 391 134.902 391 235H77.713"/><path d="M452.645 188a173.3 173.3 0 0125.33 93.183C477.975 377.43 411.033 449 303.2 449 210.857 449 134 387.298 134 281.183h331.6a164.187 164.187 0 00-19.468-79.243"/></g><path d="M217.22 250.981H482c5.523 0 10 4.477 10 10v177.445c0 5.523-4.477 10-10 10H217c-5.523 0-10-4.477-10-10V340.35c0-5.523 4.477-10 10-10h229.148c5.523 0 10-4.477 10-10v-20.578c0-5.512-4.46-9.984-9.97-10l-228.987-.664c-5.512-.016-9.971-4.488-9.971-10v-18.126c0-5.523 4.477-10 10-10zm229.176 115.083H253.62c-5.523 0-10 4.477-10 10v23.9c0 5.524 4.477 10 10 10h192.775c5.522 0 10-4.476 10-10v-23.9c0-5.523-4.478-10-10-10z" fill="#4A4A4A"/><circle fill="#4A4A4A" fill-rule="nonzero" cx="349.5" cy="510.5" r="21.5"/></g></svg>