<svg xmlns="http://www.w3.org/2000/svg" viewBox="0 0 400 400"><path fill="#ddd" d="M316 282.5c-1.8 0-3.6-.5-5.2-1.6-4.3-2.9-5.4-8.7-2.6-12.9 8.6-12.8 13.1-27.8 13.1-43.4 0-15.6-4.5-30.6-13.1-43.4-2.9-4.3-1.7-10.1 2.5-12.9 4.3-2.9 10-1.7 12.9 2.5 10.7 15.9 16.3 34.5 16.3 53.8 0 19.3-5.6 37.9-16.3 53.8-1.7 2.7-4.6 4.1-7.6 4.1z"/><path fill="#ddd" d="M289.3 267.4c-1.8 0-3.6-.5-5.2-1.6-4.3-2.9-5.4-8.7-2.5-12.9 5.7-8.4 8.7-18.1 8.7-28.3 0-10.1-3-19.9-8.7-28.3-2.9-4.3-1.8-10 2.5-12.9 4.3-2.9 10-1.8 12.9 2.5 7.8 11.5 11.9 24.9 11.9 38.7 0 13.9-4.1 27.3-11.9 38.7-1.7 2.7-4.7 4.1-7.7 4.1zM245.8 184c-3.7-37.3-35.2-66.5-73.5-66.5-31.7 0-59.8 20.4-69.9 50-23.9 3.5-42.4 24.1-42.4 49 0 27.3 22.3 49.6 49.7 49.6h127.2c22.9 0 41.6-18.6 41.6-41.5 0-19.9-14-36.5-32.7-40.6zm-8.9 63.5H109.7c-17.1 0-31.1-13.9-31.1-31s13.9-31 31.1-31c8.3 0 16.1 3.2 22 9.1 3.6 3.6 9.5 3.6 13.2 0 3.6-3.6 3.6-9.5 0-13.2-6.4-6.4-14.3-10.8-22.9-13 8.8-19.4 28.4-32.4 50.3-32.4 30.5 0 55.3 24.8 55.3 55.2 0 5.9-.9 11.7-2.8 17.3-1.6 4.9 1 10.1 5.9 11.8 1 .3 2 .5 2.9.5 3.9 0 7.5-2.5 8.8-6.4 1.2-3.7 2.1-7.4 2.7-11.2 8.6 3.3 14.7 11.6 14.7 21.3.1 12.7-10.3 23-22.9 23z"/></svg>