<svg xmlns="http://www.w3.org/2000/svg" width="1000" height="245.045"><path d="M.5 5.981l48.658 192.34c6.226 24.62 17.567 43.546 43.252 43.546 20.638 0 35.038-9.02 51.902-32.93L281.243 5.98H231.7c-40.26 0-51.258 17.596-61.896 33.684l-57.865 86.766L81.728 5.98zM388.815.5C295.674.5 242.71 78.265 242.71 139.954c0 66.191 47.866 104.59 115.084 104.59 64.978 0 111.283-43.59 127.928-78.901h-88.879c-5.027 4.8-16.485 12.844-34.863 12.844-23.214 0-40.369-16.935-40.369-34.863H473.91c17.185 0 27.524-1.519 27.524-38.59C501.434 45.575 460.419.5 388.815.5zm-6.48 66.057c24.444 0 38.362 19.085 38.362 25.69 0 2.336-2.025 3.669-4.014 3.669h-84.062c5.073-9.356 22.302-29.359 49.715-29.359zM887.283.5c-90.368 0-145.475 74.009-145.475 139.97 0 55.787 37.197 104.075 113.765 104.075 80.137 0 143.927-65.037 143.927-141.29C999.5 43.84 955.715.5 887.283.5zm-7.512 72.193c30.6 0 38.19 24.943 38.19 37.902 0 29.858-25.348 61.814-56.367 61.814-25.188 0-38.533-17.814-38.533-37.96 0-30.96 26.526-61.756 56.71-61.756zM502.562 5.981l48.658 192.34c6.225 24.62 17.566 43.546 43.251 43.546 20.639 0 35.039-9.02 51.903-32.93L783.304 5.98h-49.542c-40.26 0-51.258 17.596-61.896 33.684L614 126.431 583.79 5.98z" fill="#ff0031"/></svg>