<svg xmlns="http://www.w3.org/2000/svg" width="1269.104" height="1269.286"><path fill="#666766" d="M795.388 562.182l-36.936 171.755-123.738 59.099v.086l-123.737-59.098-36.937-171.756L6.792 290.785l81.261 147.746 343.51 180.989 42.477 153.287 160.674 72.026v-.086l160.674-72.026 42.478-153.287 343.51-180.99 81.26-147.746z"/><path fill="#666766" d="M840.477 697.21l260.403-103.423 60.945-117.212-306.573 159.689zm-12.985 63.47l212.854-50.788 48.623-89.596-251.161 99.447zM414.177 636.351l-306.574-159.69 60.946 117.213 260.403 103.422zm-233.718-15.969l48.624 89.597 212.854 50.788-10.316-40.941z"/></svg>